<svg width="62" height="60" viewBox="0 0 62 60" fill="none" xmlns="http://www.w3.org/2000/svg">
<g clip-path="url(#clip0_7_210)">
<path d="M49.445 1.91251C49.5004 1.94457 49.5004 1.94457 49.557 1.97739C49.9677 2.24064 50.2467 2.62239 50.3552 3.08739C50.3734 3.18901 50.3787 3.28276 50.3795 3.38589C50.3798 3.42489 50.3802 3.46389 50.3806 3.50439C50.3809 3.56814 50.3809 3.56814 50.3813 3.63301C50.3817 3.67801 50.382 3.72301 50.3824 3.76951C50.3835 3.89251 50.3843 4.01589 50.3851 4.13889C50.3859 4.26751 50.387 4.39651 50.388 4.52514C50.39 4.76889 50.3917 5.01264 50.3934 5.25639C50.3953 5.53389 50.3974 5.81139 50.3996 6.08889C50.404 6.65889 50.4081 7.22889 50.4121 7.80264C50.4601 7.80638 50.4601 7.80638 50.509 7.81018C50.5508 7.81349 50.5927 7.81681 50.6357 7.82023C50.6771 7.82349 50.7186 7.82675 50.7616 7.83013C50.979 7.84895 51.1917 7.88713 51.4087 7.92463C51.48 7.93711 51.48 7.93711 51.5533 7.94983C51.8923 8.01095 52.2198 8.08445 52.5491 8.19133C52.6243 8.2157 52.6999 8.23858 52.7754 8.26145C53.7597 8.5682 54.6742 9.07145 55.4725 9.7052C55.5627 9.77683 55.655 9.8462 55.7468 9.91595C55.8786 10.0161 55.9956 10.1233 56.1126 10.2392C56.1329 10.2593 56.1533 10.2793 56.1742 10.3C56.7283 10.8512 57.1817 11.4325 57.5925 12.0887C57.6113 12.1188 57.6301 12.1487 57.6494 12.1798C57.6998 12.2642 57.6998 12.2642 57.7366 12.3381C57.842 12.5485 57.9978 12.6287 58.2016 12.7393C58.2721 12.7787 58.3423 12.8177 58.4128 12.8571C58.4671 12.8871 58.467 12.8871 58.5225 12.9178C58.6941 13.0142 58.8619 13.1158 59.0301 13.2175C59.2785 13.3671 59.5261 13.5152 59.778 13.6637C59.8528 13.7076 59.9275 13.7518 60.0023 13.7961C60.1868 13.9048 60.3712 14.0128 60.5564 14.1193C61.2036 14.4928 61.75 14.8618 61.9708 15.5968C62.0828 16.0581 61.9439 16.5231 61.8406 16.9768C61.805 17.1362 61.7697 17.2956 61.7345 17.4531C61.7249 17.4958 61.7154 17.5386 61.7056 17.5828C61.6312 17.9192 61.5603 18.2541 61.4913 18.5916C61.4734 18.679 61.4554 18.7663 61.4375 18.8537C61.3658 19.2002 61.3658 19.2002 61.2953 19.5475C61.2674 19.6843 61.2391 19.8212 61.2108 19.96C61.1955 20.0342 61.1805 20.1085 61.1654 20.1827C61.0112 20.9215 60.79 21.4465 60.1386 21.8927C60.0591 21.9475 59.9801 22.003 59.901 22.0585C59.7534 22.1623 59.6054 22.2655 59.4593 22.3682C59.3101 22.4717 59.1613 22.5756 59.0137 22.6798C58.9846 22.7001 58.9555 22.7203 58.9257 22.7413C58.744 22.8685 58.5626 22.9963 58.3832 23.1238C58.2015 23.2528 58.0197 23.3818 57.8368 23.5101C57.7779 23.5513 57.7194 23.5933 57.6609 23.6357C57.4877 23.7602 57.318 23.8622 57.1223 23.9477C56.8514 24.1086 56.8514 24.1086 56.7115 24.3715C56.7013 24.5001 56.6999 24.6261 56.7016 24.754C56.7011 24.802 56.7006 24.8496 56.7001 24.8991C56.6992 25 56.6988 25.1008 56.6992 25.2021C56.6998 25.3461 56.6983 25.4897 56.6963 25.6333C56.6929 25.897 56.6915 26.1621 56.6904 26.4246C56.6899 26.5566 56.689 26.6882 56.6882 26.8183C56.6855 27.2646 56.6832 27.7071 56.6812 28.1533C56.6801 28.4016 56.6787 28.6483 56.677 28.8958C56.6762 29.026 56.6755 29.1557 56.6751 29.2858C56.6637 32.7283 55.7838 36.0733 53.5596 40.3858C53.5423 40.4146 53.525 40.4432 53.5073 40.4728C53.0461 41.2416 52.5385 41.9878 51.9805 42.6966C51.9642 42.7172 51.948 42.7378 51.9313 42.7592C51.8879 42.8136 51.8445 42.8676 51.8007 42.922C51.6771 43.0978 51.693 43.2801 51.6938 43.4882C51.6937 43.5212 51.6937 43.5542 51.6937 43.5883C51.6936 43.6993 51.6938 43.8103 51.694 43.9213C51.694 44.0008 51.694 44.0803 51.694 44.1598C51.694 44.3758 51.6942 44.5911 51.6945 44.8086C51.6947 45.0343 51.6948 45.2586 51.6948 45.4836C51.6949 45.9111 51.6952 46.3386 51.6956 46.7661C51.6961 47.2536 51.6963 47.7373 51.6965 48.2248C51.6969 49.2261 51.6976 50.2273 51.6984 51.2248C51.7202 51.2278 51.7418 51.2308 51.7643 51.2338C51.8647 51.2476 51.965 51.2616 52.0654 51.2758C52.0996 51.2804 52.134 51.2851 52.1688 51.2899C53.1376 51.4267 54.0095 51.9011 54.6062 52.6586C54.8666 53.0201 55.0557 53.3899 55.1836 53.8136C55.196 53.853 55.2084 53.8924 55.2211 53.9329C55.4331 54.7241 55.3211 55.5979 54.9511 56.3254C54.9335 56.3603 54.916 56.3951 54.898 56.4311C54.4562 57.2636 53.6657 57.8524 52.7551 58.1411C52.263 58.2701 51.7825 58.2892 51.2748 58.2896C51.2047 58.2899 51.1342 58.2901 51.064 58.2904C50.9172 58.2908 50.7703 58.291 50.6223 58.2909C50.4735 58.2909 50.3247 58.2914 50.1767 58.2925C48.4678 58.304 47.0418 58.0746 45.7592 56.8787C45.5348 56.6597 45.3445 56.4249 45.1702 56.1662C45.1314 56.1096 45.0888 56.0552 45.0462 56.0008C44.7912 55.636 44.8141 55.2246 44.7935 54.7971C44.7319 53.5333 44.2161 52.2996 43.4218 51.3058C43.3939 51.2705 43.366 51.2353 43.3373 51.1986C42.787 50.5236 42.105 49.9911 41.33 49.5823C41.2866 49.5593 41.2436 49.5362 41.1991 49.5126C40.0714 48.9388 38.8973 48.7963 37.6418 48.7701C37.6143 48.7695 37.5868 48.7689 37.5585 48.7682C37.4826 48.7666 37.407 48.7652 37.331 48.7638C37.221 48.7573 37.221 48.7573 37.1822 48.7199C37.1782 48.6419 37.177 48.5636 37.1769 48.4856C37.1768 48.4608 37.1767 48.4361 37.1766 48.4106C37.1762 48.3269 37.1762 48.2429 37.1761 48.1593C37.176 48.0993 37.1758 48.0397 37.1755 47.9797C37.1751 47.8503 37.1748 47.7209 37.1745 47.5934C37.1741 47.3879 37.1733 47.1809 37.1725 46.9784C37.1701 46.3934 37.168 45.8084 37.1667 45.2272C37.166 44.9051 37.1648 44.5822 37.1633 44.2597C37.1625 44.0894 37.1619 43.9192 37.1618 43.7497C37.1613 43.0109 37.1469 42.2909 37.0273 41.5597C37.0232 41.5337 37.019 41.5076 37.0148 41.4809C36.9939 41.3508 36.9702 41.2222 36.9427 41.0947C36.9346 41.0568 36.9266 41.0189 36.9183 40.9796C36.5653 39.3896 35.8217 37.8858 34.7793 36.6296C34.7504 36.5936 34.7215 36.5576 34.6917 36.5208C34.4414 36.2167 34.1647 35.9358 33.8896 35.6546C33.8574 35.6219 33.8252 35.5893 33.7923 35.5556C33.5807 35.3452 33.3506 35.1618 33.1142 34.9781C33.0731 34.9457 33.032 34.9132 32.991 34.8809C31.038 33.3509 28.3022 32.3047 25.7447 32.5034C25.2913 32.5608 24.838 32.7862 24.5551 33.1409C24.2358 33.6247 24.1056 34.1272 24.2199 34.6934C24.3706 35.1734 24.6578 35.5559 25.115 35.7959C25.5064 35.9677 25.8978 36.0089 26.3201 36.0281C28.277 36.1394 30.0208 36.8981 31.3964 38.2443C31.4165 38.2639 31.4367 38.2837 31.4576 38.3036C32.6782 39.5073 33.4222 41.2061 33.5114 42.8786C33.5138 42.9247 33.5138 42.9247 33.5163 42.9719C33.5336 43.3256 33.5343 43.6769 33.5342 44.0332C33.5343 44.1071 33.5345 44.1809 33.5346 44.2552C33.5349 44.4127 33.5351 44.5706 33.5352 44.7277C33.5355 44.9774 33.5361 45.2264 33.5368 45.4777C33.5371 45.5636 33.5373 45.6494 33.5376 45.7353C33.5377 45.7784 33.5378 45.8212 33.5379 45.8654C33.5396 46.4467 33.5409 47.0242 33.5413 47.6054C33.5417 47.9992 33.5425 48.3929 33.544 48.7829C33.5448 48.9903 33.5453 49.1992 33.5451 49.4054C33.5449 49.6004 33.5454 49.7954 33.5465 49.9904C33.5468 50.0617 33.5468 50.1326 33.5465 50.2038C33.5446 50.7363 33.585 51.1863 33.9379 51.6251C33.9956 51.7008 33.9956 51.7008 34.0344 51.8133C34.1049 51.8523 34.1049 51.8523 34.1894 51.8883C34.2518 51.9303 34.3138 51.9727 34.3757 52.0151C34.8369 52.2956 35.3213 52.3229 35.8521 52.3203C35.9583 52.3198 36.0645 52.3203 36.1707 52.3209C36.3578 52.3219 36.5454 52.3221 36.7325 52.3221C37.0321 52.322 37.3332 52.3225 37.6315 52.3242C37.735 52.3245 37.8388 52.3242 37.9423 52.3238C38.8762 52.325 39.6395 52.5968 40.3138 53.2388C40.3545 53.2775 40.3545 53.2775 40.396 53.3168C40.9384 53.8681 41.1748 54.5881 41.171 55.3381C41.171 55.3703 41.171 55.4026 41.171 55.4356C41.1709 55.541 41.1706 55.6467 41.1703 55.7521C41.1703 55.8256 41.1702 55.8991 41.1702 55.9726C41.17 56.1653 41.1696 56.3588 41.1692 56.5501C41.1688 56.7473 41.1686 56.9438 41.1684 57.1426C41.168 57.5288 41.1674 57.9151 41.1666 58.3013C37.8806 58.3039 34.5791 58.3063 31.3241 58.3077C31.2752 58.3077 31.2268 58.3077 31.1768 58.3077C30.1189 58.3082 29.0611 58.3086 28.0032 58.309C27.5111 58.3092 27.0189 58.3093 26.5268 58.3095C26.4485 58.3096 26.3706 58.3096 26.2924 58.3096C25.0911 58.3101 23.886 58.3107 22.6847 58.3116C22.6589 58.3116 22.6332 58.3117 22.6065 58.3117C22.188 58.312 21.7733 58.3124 21.3548 58.3127C19.6111 58.3141 17.8673 58.3151 16.1236 58.3154C15.8806 58.3155 15.6392 58.3155 15.3951 58.3156C15.3474 58.3156 15.2994 58.3156 15.2502 58.3156C14.4829 58.3158 13.7118 58.3165 12.9445 58.3173C12.1695 58.3182 11.3984 58.3186 10.6234 58.3183C10.1662 58.3182 9.70504 58.3185 9.24779 58.3194C8.9405 58.32 8.63166 58.32 8.32554 58.3196C8.15077 58.3194 7.9764 58.3194 7.80241 58.3201C6.06641 58.3264 4.44279 58.0231 2.99741 57.0263L2.87535 56.9419C2.2786 56.5144 1.7051 55.9744 1.29435 55.3744C1.27474 55.346 1.25521 55.3174 1.23506 55.2882C0.444561 54.1257 -0.0398144 52.7644 -0.0436894 51.3507C-0.0437933 51.3232 -0.0438994 51.2959 -0.0440063 51.2674C-0.0435375 50.6899 0.052869 50.1499 0.208257 49.5874C0.217789 49.5528 0.227284 49.5181 0.237087 49.4824C0.561425 48.3349 1.19421 47.3412 2.03121 46.4749C2.06078 46.4434 2.0905 46.4119 2.12072 46.3793C3.3646 45.1081 5.20135 44.4218 7.00323 44.3731C7.20666 44.3684 7.4101 44.3667 7.6116 44.3659C7.64001 44.3657 7.66856 44.3655 7.69763 44.3653C8.13163 44.363 8.51912 44.3795 8.9105 44.5745C8.95467 44.5961 8.99885 44.6177 9.04419 44.6398C9.47432 44.8865 9.73781 45.2623 9.86957 45.7235C9.97962 46.166 9.87937 46.6198 9.65954 47.021C9.37667 47.4448 9.04342 47.6773 8.55129 47.8235C8.51944 47.8335 8.51944 47.8335 8.48697 47.8436C8.35405 47.8691 8.22153 47.8684 8.08784 47.8703C8.02545 47.8715 7.96306 47.8727 7.90068 47.874C7.80341 47.8758 7.70615 47.8774 7.6085 47.8789C6.46538 47.8972 5.49662 48.132 4.648 48.9252C3.904 49.6714 3.64825 50.5677 3.65987 51.5877C3.68328 52.3864 4.05513 53.1214 4.6015 53.7139C4.67668 53.7799 4.75456 53.8399 4.834 53.9014V53.9764L4.89329 54.0026C4.99946 54.057 5.09867 54.1185 5.19942 54.1819C5.82717 54.5719 6.45491 54.7706 7.20279 54.7706C7.24193 54.7708 7.28068 54.771 7.32098 54.7712C7.45118 54.7718 7.58177 54.7721 7.71235 54.7724C7.80574 54.7727 7.89951 54.7731 7.9929 54.7735C8.19401 54.7743 8.3959 54.775 8.5974 54.7756C8.88841 54.7764 9.17865 54.7775 9.46928 54.7786C9.94203 54.7804 10.4148 54.782 10.8875 54.7835C11.3448 54.785 11.8059 54.7865 12.2632 54.7882C12.2914 54.7883 12.3197 54.7884 12.3488 54.7885C12.4906 54.789 12.6324 54.7895 12.775 54.7901C13.953 54.7943 15.1272 54.7983 16.3052 54.8022C16.292 54.781 16.2787 54.7598 16.2653 54.738C16.2044 54.6405 16.144 54.5434 16.0831 54.4459C16.0623 54.4127 16.0417 54.3795 16.02 54.345C15.5007 53.5125 15.1287 52.6163 14.9427 51.66L14.9245 51.5674C14.8059 50.9149 14.7835 50.2624 14.7842 49.6024C14.7841 49.5158 14.7839 49.4292 14.7836 49.3425C14.7831 49.1093 14.7831 48.8775 14.7832 48.645C14.7832 48.4242 14.783 48.2025 14.7828 47.9813C14.7824 47.5163 14.7824 47.0513 14.7827 46.5863C14.7829 46.1625 14.7824 45.7425 14.7817 45.3188C14.7809 44.8838 14.7806 44.445 14.7808 44.01C14.7809 43.7663 14.7808 43.5225 14.7802 43.2788C14.7739 40.1775 15.191 37.0163 16.8107 34.2788C16.8488 34.2109 16.8867 34.143 16.9246 34.0748C16.9642 34.0054 17.0037 33.9357 17.0432 33.8663C17.0552 33.8448 17.0672 33.8232 17.0796 33.801C17.3144 33.381 17.5756 32.9835 17.8585 32.5898C17.8872 32.5489 17.8872 32.5489 17.9166 32.5077C18.2921 31.9752 18.7071 31.4839 19.1411 30.9964C19.2167 30.912 19.2903 30.8284 19.3573 30.7373C19.3738 30.7174 19.3903 30.6975 19.4073 30.6769H19.4848C19.4937 30.6561 19.5026 30.6353 19.5119 30.6139C19.5762 30.5029 19.6568 30.4257 19.7498 30.3357C19.7685 30.3175 19.7871 30.2994 19.8064 30.2805C19.8459 30.2423 19.8858 30.204 19.9253 30.1658C19.9846 30.1088 20.0439 30.051 20.1028 29.9937C20.3198 29.7833 20.5407 29.5887 20.7848 29.4012C20.8875 29.3205 20.9836 29.235 21.0797 29.1473C21.7656 28.5398 22.5599 28.0298 23.3582 27.5723C23.4357 27.5273 23.5128 27.4815 23.5899 27.4358C23.9305 27.2329 24.2797 27.0533 24.64 26.8883C24.6896 26.8652 24.6896 26.8652 24.74 26.8418C26.7356 25.9155 28.8863 25.338 31.095 25.1993C31.1415 25.1962 31.188 25.1931 31.2361 25.1898C31.5964 25.1671 31.9568 25.1574 32.3172 25.1526C32.3637 25.1519 32.4098 25.1513 32.4579 25.1507C32.6504 25.1482 32.843 25.1459 33.0352 25.1439C33.1778 25.1424 33.32 25.1405 33.4615 25.1385C33.5041 25.1382 33.5467 25.1379 33.5909 25.1376C34.8309 25.1187 35.9004 24.6313 36.7645 23.7763C37.2373 23.2701 37.5744 22.6026 37.7216 21.9351C37.7281 21.9081 37.7345 21.8811 37.7411 21.8533C37.8167 21.4877 37.8112 21.1221 37.812 20.7508C37.8123 20.6267 37.8131 20.5022 37.8141 20.3781C37.8159 20.1133 37.8172 19.8493 37.8184 19.5831C37.8198 19.2778 37.8214 18.9718 37.8237 18.6681C37.8244 18.5473 37.8248 18.4269 37.8251 18.3062C37.8413 15.2312 38.9953 12.5687 41.2389 10.3937C41.4509 10.1916 41.6691 10.0037 41.9054 9.83118C41.93 9.81322 41.9547 9.79529 41.9798 9.77681C43.9173 8.37056 43.9173 8.37056 44.5412 8.37056C44.5621 8.30606 44.5621 8.30606 44.5835 8.24006C44.6792 7.96218 44.7974 7.69256 44.9117 7.42256C44.9373 7.36181 44.9628 7.30068 44.9884 7.23993C45.0717 7.04231 45.155 6.84618 45.2387 6.64743C45.2531 6.61342 45.2674 6.57956 45.2821 6.54431C45.415 6.22931 45.5483 5.91431 45.6812 5.59931C45.8467 5.20931 46.0118 4.81556 46.1772 4.42556C47.1189 2.18306 47.1189 2.18306 47.8202 1.83431C48.3201 1.63931 48.9595 1.65131 49.4245 1.92131L49.445 1.91251ZM52.7077 13.8375C52.3888 14.2425 52.2234 14.7113 52.2737 15.2213C52.3574 15.7275 52.5919 16.14 53.01 16.4588C53.4866 16.7584 53.9981 16.8713 54.5561 16.7565C55.056 16.623 55.4357 16.3328 55.7147 15.9128C55.991 15.4253 55.9934 14.9228 55.8465 14.3978C55.6853 13.959 55.335 13.6253 54.9165 13.4078C54.157 13.0598 53.2774 13.2394 52.7077 13.8353V13.8375Z" fill="#E9DCCE"/>
</g>
<defs>
<clipPath id="clip0_7_210">
<rect width="62" height="60" fill="white"/>
</clipPath>
</defs>
</svg>
