<svg width="1639" height="693" viewBox="0 0 1639 693" fill="none" xmlns="http://www.w3.org/2000/svg">
<g clip-path="url(#clip0_11_753)">
<rect y="0.571167" width="1639" height="691.858" rx="17.2656" fill="#E9DCCE"/>
<g opacity="0.5" clip-path="url(#clip1_11_753)">
<path d="M1560.61 -32.595C1569.01 -39.9056 1582.77 -39.696 1590.87 -31.9836C1592.53 -30.3939 1593.82 -28.6034 1594.72 -26.6993C1597.06 -21.7513 1600.36 -17.192 1604.71 -13.41L1605.89 -12.3881C1610.36 -8.49256 1615.69 -5.42681 1621.55 -3.33056C1624.32 -2.34358 1626.9 -0.810707 1629.07 1.25496C1636.3 8.15073 1636.3 18.8634 1629.07 25.7592C1624.3 30.3054 1617.56 32.2488 1611.11 31.585C1601.85 30.6242 1592.47 32.4759 1584.39 36.5286C1575 41.2408 1562.49 43.9266 1551.46 34.3363C1540.56 24.8421 1543.68 13.9241 1549.07 5.71385C1553.75 -1.3959 1555.6 -9.63239 1554.6 -17.7772C1553.95 -23.0614 1555.95 -28.5466 1560.61 -32.595Z" fill="#586958" fill-opacity="0.24"/>
<path d="M1586.56 46.6211C1594.14 40.031 1605.34 39.0877 1611.58 44.5161C1617.81 49.9445 1616.73 59.6877 1609.16 66.2777C1601.58 72.8722 1590.38 73.8155 1584.14 68.3871C1577.9 62.9587 1578.99 53.2111 1586.56 46.6211Z" fill="#586958" fill-opacity="0.24"/>
<path d="M1535.46 54.1108C1543.04 47.5208 1554.24 46.5775 1560.48 52.0059C1566.71 57.4342 1565.63 67.1774 1558.05 73.7675C1550.48 80.3619 1539.28 81.3008 1533.04 75.8724C1526.8 70.4441 1527.89 60.7009 1535.46 54.1108Z" fill="#586958" fill-opacity="0.24"/>
<path d="M1537.35 3.79673C1544.92 -2.7977 1546 -12.5408 1539.77 -17.9692C1533.53 -23.3976 1522.33 -22.4543 1514.75 -15.8643C1507.18 -9.26984 1506.09 0.473321 1512.33 5.90171C1518.57 11.3301 1529.77 10.3868 1537.35 3.79673Z" fill="#586958" fill-opacity="0.24"/>
<path d="M1528.74 48.2588C1536.31 41.6687 1537.4 31.9256 1531.16 26.4972C1524.92 21.0688 1513.72 22.0121 1506.15 28.6022C1498.57 35.1922 1497.49 44.9354 1503.73 50.3638C1509.96 55.7922 1521.16 54.8532 1528.74 48.2588Z" fill="#586958" fill-opacity="0.24"/>
<path d="M1377.61 -40.4559C1386.01 -47.7666 1399.77 -47.5569 1407.87 -39.8445C1409.53 -38.2549 1410.82 -36.4643 1411.72 -34.5602C1414.06 -29.6122 1417.37 -25.0529 1421.71 -21.2709L1422.89 -20.249C1427.36 -16.3535 1432.7 -13.2877 1438.55 -11.1915C1441.32 -10.2045 1443.9 -8.67165 1446.07 -6.60598C1453.3 0.289787 1453.3 11.0025 1446.07 17.8982C1441.3 22.4444 1434.56 24.3878 1428.11 23.724C1418.85 22.7632 1409.48 24.6149 1401.39 28.6677C1392 33.3798 1379.49 36.0657 1368.47 26.4753C1357.56 16.9811 1360.68 6.06319 1366.07 -2.14709C1370.75 -9.25684 1372.61 -17.4933 1371.6 -25.6381C1370.95 -30.9224 1372.95 -36.4075 1377.61 -40.4559Z" fill="#586958" fill-opacity="0.24"/>
<path d="M1403.56 38.7602C1411.14 32.1702 1422.34 31.2269 1428.58 36.6553C1434.82 42.0837 1433.73 51.8268 1426.16 58.4169C1418.58 65.0113 1407.38 65.9546 1401.14 60.5262C1394.9 55.0978 1395.99 45.3503 1403.56 38.7602Z" fill="#586958" fill-opacity="0.24"/>
<path d="M1352.46 46.2499C1360.04 39.6598 1371.24 38.7165 1377.48 44.1449C1383.71 49.5733 1382.63 59.3164 1375.06 65.9065C1367.48 72.5009 1356.28 73.4399 1350.04 68.0115C1343.8 62.5831 1344.89 52.8399 1352.46 46.2499Z" fill="#586958" fill-opacity="0.24"/>
<path d="M1354.35 -4.06423C1361.92 -10.6587 1363.01 -20.4018 1356.77 -25.8302C1350.53 -31.2586 1339.33 -30.3153 1331.75 -23.7252C1324.18 -17.1308 1323.09 -7.38765 1329.33 -1.95926C1335.57 3.46914 1346.77 2.52583 1354.35 -4.06423Z" fill="#586958" fill-opacity="0.24"/>
<path d="M1345.74 40.3978C1353.31 33.8078 1354.4 24.0646 1348.16 18.6362C1341.92 13.2078 1330.72 14.1511 1323.15 20.7412C1315.57 27.3313 1314.49 37.0744 1320.73 42.5028C1326.97 47.9312 1338.16 46.9923 1345.74 40.3978Z" fill="#586958" fill-opacity="0.24"/>
<path d="M1415.06 134.668C1423.46 127.357 1437.22 127.567 1445.32 135.279C1446.98 136.869 1448.27 138.659 1449.17 140.563C1451.51 145.511 1454.81 150.071 1459.16 153.853L1460.33 154.874C1464.81 158.77 1470.14 161.836 1476 163.932C1478.77 164.919 1481.35 166.452 1483.52 168.518C1490.75 175.413 1490.75 186.126 1483.52 193.022C1478.75 197.568 1472.01 199.511 1465.56 198.848C1456.3 197.887 1446.92 199.738 1438.84 203.791C1429.45 208.503 1416.94 211.189 1405.91 201.599C1395.01 192.105 1398.13 181.187 1403.52 172.976C1408.2 165.867 1410.05 157.63 1409.05 149.485C1408.4 144.201 1410.4 138.716 1415.06 134.668Z" fill="#586958" fill-opacity="0.24"/>
<path d="M1441.01 213.884C1448.59 207.293 1459.79 206.35 1466.03 211.779C1472.26 217.207 1471.18 226.95 1463.61 233.54C1456.03 240.135 1444.83 241.078 1438.59 235.65C1432.35 230.221 1433.44 220.474 1441.01 213.884Z" fill="#586958" fill-opacity="0.24"/>
<path d="M1389.91 221.373C1397.49 214.783 1408.69 213.84 1414.92 219.268C1421.16 224.697 1420.08 234.44 1412.5 241.03C1404.93 247.624 1393.73 248.563 1387.49 243.135C1381.25 237.706 1382.34 227.963 1389.91 221.373Z" fill="#586958" fill-opacity="0.24"/>
<path d="M1391.8 171.059C1399.37 164.465 1400.45 154.722 1394.22 149.293C1387.98 143.865 1376.78 144.808 1369.2 151.398C1361.63 157.993 1360.54 167.736 1366.78 173.164C1373.02 178.593 1384.22 177.649 1391.8 171.059Z" fill="#586958" fill-opacity="0.24"/>
<path d="M1383.19 215.521C1390.76 208.931 1391.85 199.188 1385.61 193.76C1379.37 188.331 1368.17 189.274 1360.6 195.864C1353.02 202.455 1351.94 212.198 1358.18 217.626C1364.41 223.055 1375.61 222.116 1383.19 215.521Z" fill="#586958" fill-opacity="0.24"/>
<path d="M1222.83 97.6951C1231.23 90.3844 1244.99 90.5941 1253.09 98.3065C1254.75 99.8961 1256.04 101.687 1256.94 103.591C1259.28 108.539 1262.59 113.098 1266.94 116.88L1268.11 117.902C1272.59 121.797 1277.92 124.863 1283.77 126.959C1286.54 127.946 1289.12 129.479 1291.29 131.545C1298.52 138.441 1298.52 149.153 1291.29 156.049C1286.52 160.595 1279.78 162.539 1273.34 161.875C1264.07 160.914 1254.7 162.766 1246.61 166.819C1237.22 171.531 1224.71 174.217 1213.69 164.626C1202.78 155.132 1205.9 144.214 1211.29 136.004C1215.97 128.894 1217.83 120.658 1216.82 112.513C1216.17 107.229 1218.18 101.743 1222.83 97.6951Z" fill="#586958" fill-opacity="0.24"/>
<path d="M1248.79 176.911C1256.36 170.321 1267.56 169.378 1273.8 174.806C1280.04 180.235 1278.95 189.978 1271.38 196.568C1263.8 203.162 1252.6 204.105 1246.37 198.677C1240.13 193.249 1241.21 183.501 1248.79 176.911Z" fill="#586958" fill-opacity="0.24"/>
<path d="M1197.68 184.401C1205.26 177.811 1216.46 176.868 1222.7 182.296C1228.94 187.724 1227.85 197.467 1220.28 204.058C1212.7 210.652 1201.5 211.591 1195.26 206.162C1189.03 200.734 1190.11 190.991 1197.68 184.401Z" fill="#586958" fill-opacity="0.24"/>
<path d="M1199.57 134.087C1207.14 127.492 1208.23 117.749 1201.99 112.321C1195.75 106.892 1184.55 107.836 1176.98 114.426C1169.4 121.02 1168.32 130.763 1174.56 136.192C1180.79 141.62 1191.99 140.677 1199.57 134.087Z" fill="#586958" fill-opacity="0.24"/>
<path d="M1190.96 178.549C1198.54 171.959 1199.62 162.216 1193.38 156.787C1187.14 151.359 1175.94 152.298 1168.37 158.892C1160.79 165.482 1159.71 175.225 1165.95 180.654C1172.19 186.082 1183.39 185.143 1190.96 178.549Z" fill="#586958" fill-opacity="0.24"/>
<path d="M1251.13 300.62C1259.53 293.309 1273.29 293.519 1281.39 301.231C1283.06 302.821 1284.34 304.611 1285.24 306.515C1287.58 311.463 1290.89 316.023 1295.24 319.805L1296.41 320.827C1300.89 324.722 1306.22 327.788 1312.07 329.884C1314.84 330.871 1317.42 332.404 1319.59 334.47C1326.82 341.365 1326.82 352.078 1319.59 358.974C1314.82 363.52 1308.09 365.464 1301.64 364.8C1292.37 363.839 1283 365.691 1274.91 369.743C1265.52 374.456 1253.01 377.141 1241.99 367.551C1231.08 358.057 1234.2 347.139 1239.59 338.929C1244.27 331.819 1246.13 323.582 1245.12 315.438C1244.47 310.153 1246.48 304.668 1251.13 300.62Z" fill="#586958" fill-opacity="0.24"/>
<path d="M1277.09 379.836C1284.66 373.246 1295.86 372.303 1302.1 377.731C1308.34 383.159 1307.25 392.902 1299.68 399.493C1292.1 406.087 1280.9 407.03 1274.67 401.602C1268.43 396.174 1269.51 386.426 1277.09 379.836Z" fill="#586958" fill-opacity="0.24"/>
<path d="M1225.98 387.326C1233.56 380.736 1244.76 379.792 1251 385.221C1257.24 390.649 1256.15 400.392 1248.58 406.982C1241 413.572 1229.8 414.516 1223.56 409.087C1217.33 403.659 1218.41 393.916 1225.98 387.326Z" fill="#586958" fill-opacity="0.24"/>
<path d="M1227.87 337.011C1235.44 330.417 1236.53 320.674 1230.29 315.245C1224.05 309.817 1212.85 310.76 1205.28 317.35C1197.7 323.945 1196.62 333.688 1202.85 339.116C1209.09 344.545 1220.29 343.602 1227.87 337.011Z" fill="#586958" fill-opacity="0.24"/>
<path d="M1219.26 381.474C1226.84 374.884 1227.92 365.14 1221.68 359.712C1215.44 354.284 1204.24 355.227 1196.67 361.817C1189.09 368.407 1188.01 378.15 1194.25 383.579C1200.49 389.007 1211.69 388.068 1219.26 381.474Z" fill="#586958" fill-opacity="0.24"/>
<path d="M1042.85 277.185C1051.24 269.875 1065 270.084 1073.1 277.797C1074.77 279.386 1076.05 281.177 1076.95 283.081C1079.29 288.029 1082.6 292.588 1086.95 296.37L1088.12 297.392C1092.6 301.288 1097.93 304.354 1103.79 306.45C1106.56 307.437 1109.13 308.97 1111.3 311.035C1118.53 317.931 1118.53 328.644 1111.3 335.54C1106.53 340.086 1099.8 342.029 1093.35 341.365C1084.08 340.405 1074.71 342.256 1066.62 346.309C1057.23 351.021 1044.72 353.707 1033.7 344.117C1022.79 334.622 1025.91 323.705 1031.31 315.494C1035.98 308.384 1037.84 300.148 1036.84 292.003C1036.18 286.719 1038.19 281.234 1042.85 277.185Z" fill="#586958" fill-opacity="0.24"/>
<path d="M1068.8 356.402C1076.37 349.812 1087.57 348.868 1093.81 354.297C1100.05 359.725 1098.97 369.468 1091.39 376.058C1083.82 382.653 1072.62 383.596 1066.38 378.168C1060.14 372.739 1061.22 362.992 1068.8 356.402Z" fill="#586958" fill-opacity="0.24"/>
<path d="M1017.69 363.891C1025.27 357.301 1036.47 356.358 1042.71 361.786C1048.95 367.215 1047.86 376.958 1040.29 383.548C1032.71 390.142 1021.51 391.081 1015.28 385.653C1009.04 380.224 1010.12 370.481 1017.69 363.891Z" fill="#586958" fill-opacity="0.24"/>
<path d="M1019.58 313.577C1027.16 306.983 1028.24 297.24 1022 291.811C1015.76 286.383 1004.56 287.326 996.986 293.916C989.413 300.511 988.328 310.254 994.567 315.682C1000.81 321.111 1012 320.167 1019.58 313.577Z" fill="#586958" fill-opacity="0.24"/>
<path d="M1010.97 358.039C1018.55 351.449 1019.63 341.706 1013.39 336.278C1007.15 330.849 995.957 331.788 988.379 338.383C980.805 344.973 979.721 354.716 985.96 360.144C992.198 365.573 1003.4 364.634 1010.97 358.039Z" fill="#586958" fill-opacity="0.24"/>
<path d="M1085.43 458.873C1095.87 453.942 1109 457.545 1114.24 466.944C1115.32 468.878 1115.97 470.913 1116.21 472.961C1116.83 478.285 1118.52 483.473 1121.45 488.177L1122.24 489.443C1125.26 494.286 1129.37 498.544 1134.3 501.999C1136.63 503.636 1138.6 505.737 1140.01 508.257C1144.69 516.659 1141.19 526.927 1132.01 531.748C1125.95 534.932 1118.86 535.128 1112.89 532.897C1104.32 529.687 1094.73 529.141 1085.65 531.027C1075.11 533.224 1062.24 532.704 1054.81 520.782C1047.44 508.982 1054 499.287 1061.86 492.749C1068.66 487.089 1073.13 479.652 1074.83 471.595C1075.93 466.367 1079.64 461.607 1085.43 458.873Z" fill="#586958" fill-opacity="0.24"/>
<path d="M1084.44 541.242C1093.86 536.796 1104.9 538.661 1109.11 545.408C1113.32 552.156 1109.1 561.231 1099.68 565.676C1090.26 570.122 1079.22 568.257 1075.01 561.51C1070.81 554.763 1075.03 545.688 1084.44 541.242Z" fill="#586958" fill-opacity="0.24"/>
<path d="M1033 535.783C1042.42 531.337 1053.46 533.202 1057.67 539.949C1061.88 546.697 1057.66 555.772 1048.24 560.218C1038.82 564.663 1027.78 562.798 1023.57 556.051C1019.36 549.304 1023.59 540.229 1033 535.783Z" fill="#586958" fill-opacity="0.24"/>
<path d="M1051.24 488.011C1060.66 483.565 1064.88 474.49 1060.67 467.743C1056.46 460.995 1045.42 459.131 1036 463.576C1026.58 468.022 1022.36 477.097 1026.57 483.844C1030.78 490.592 1041.83 492.456 1051.24 488.011Z" fill="#586958" fill-opacity="0.24"/>
<path d="M1028.47 528.512C1037.88 524.066 1042.1 514.991 1037.9 508.244C1033.69 501.496 1022.64 499.632 1013.23 504.077C1003.81 508.523 999.586 517.598 1003.8 524.345C1008 531.093 1019.05 532.957 1028.47 528.512Z" fill="#586958" fill-opacity="0.24"/>
<path d="M891.437 376.914C901.876 371.984 915.001 375.587 920.246 384.985C921.325 386.92 921.972 388.955 922.213 391.003C922.841 396.322 924.522 401.515 927.458 406.218L928.246 407.485C931.268 412.328 935.378 416.586 940.307 420.04C942.641 421.678 944.608 423.779 946.013 426.298C950.696 434.701 947.198 444.968 938.013 449.789C931.955 452.973 924.863 453.17 918.896 450.938C910.323 447.728 900.732 447.182 891.658 449.069C881.118 451.265 868.244 450.746 860.811 438.823C853.448 427.023 860.008 417.328 867.863 410.791C874.668 405.131 879.14 397.693 880.837 389.636C881.941 384.408 885.65 379.648 891.437 376.914Z" fill="#586958" fill-opacity="0.24"/>
<path d="M890.448 459.284C899.864 454.838 910.905 456.703 915.116 463.45C919.322 470.197 915.101 479.272 905.686 483.718C896.27 488.164 885.223 486.299 881.017 479.552C876.807 472.804 881.032 463.729 890.448 459.284Z" fill="#586958" fill-opacity="0.24"/>
<path d="M839.009 453.823C848.424 449.379 859.465 451.242 863.676 457.993C867.881 464.739 863.661 473.814 854.246 478.259C844.83 482.708 833.784 480.84 829.579 474.094C825.368 467.347 829.594 458.272 839.009 453.823Z" fill="#586958" fill-opacity="0.24"/>
<path d="M857.249 406.051C866.666 401.605 870.887 392.532 866.681 385.784C862.471 379.035 851.429 377.17 842.007 381.616C832.59 386.062 828.37 395.14 832.58 401.884C836.786 408.632 847.833 410.497 857.249 406.051Z" fill="#586958" fill-opacity="0.24"/>
<path d="M834.474 446.551C843.889 442.106 848.111 433.032 843.905 426.284C839.693 419.536 828.65 417.67 819.235 422.116C809.821 426.561 805.593 435.639 809.805 442.387C814.011 449.131 825.054 450.997 834.474 446.551Z" fill="#586958" fill-opacity="0.24"/>
<path d="M310.875 380.326C321.956 376.61 334.437 381.649 338.25 391.558C339.026 393.598 339.367 395.69 339.308 397.747C339.137 403.092 340.041 408.429 342.251 413.42L342.848 414.765C345.126 419.906 348.572 424.592 352.948 428.57C355.021 430.453 356.659 432.762 357.682 435.418C361.078 444.273 356.087 454.063 346.269 457.816C339.785 460.291 332.722 459.691 327.143 456.809C319.116 452.666 309.69 451.052 300.408 451.906C289.626 452.901 276.941 450.944 271.336 438.286C265.783 425.762 273.725 416.879 282.477 411.276C290.061 406.424 295.597 399.555 298.48 391.755C300.34 386.693 304.733 382.388 310.875 380.326Z" fill="#586958" fill-opacity="0.24"/>
<path d="M297.689 461.897C307.687 458.544 318.368 461.632 321.537 468.795C324.715 475.957 319.185 484.482 309.187 487.837C299.189 491.19 288.517 488.102 285.339 480.939C282.169 473.777 287.699 465.251 297.689 461.897Z" fill="#586958" fill-opacity="0.24"/>
<path d="M247.497 450.717C257.494 447.363 268.163 450.451 271.343 457.613C274.515 464.776 268.984 473.302 258.997 476.656C248.992 480.009 238.322 476.922 235.142 469.759C231.97 462.596 237.501 454.07 247.497 450.717Z" fill="#586958" fill-opacity="0.24"/>
<path d="M272.651 405.389C282.647 402.035 288.177 393.506 285.009 386.344C281.833 379.181 271.154 376.094 261.158 379.448C251.163 382.802 245.633 391.326 248.809 398.488C251.985 405.651 262.656 408.743 272.651 405.389Z" fill="#586958" fill-opacity="0.24"/>
<path d="M244.067 442.999C254.062 439.645 259.598 431.12 256.42 423.958C253.25 416.796 242.566 413.704 232.571 417.058C222.576 420.413 217.049 428.941 220.227 436.102C223.397 443.265 234.072 446.353 244.067 442.999Z" fill="#586958" fill-opacity="0.24"/>
<path d="M118.338 493.227C127.14 486.288 140.875 487.083 148.518 495.137C150.099 496.795 151.277 498.64 152.062 500.577C154.131 505.62 157.167 510.316 161.295 514.282L162.407 515.35C166.659 519.434 171.812 522.726 177.549 525.069C180.26 526.176 182.741 527.815 184.79 529.974C191.629 537.173 191.016 547.869 183.401 554.447C178.383 558.784 171.544 560.435 165.136 559.494C155.941 558.14 146.478 559.588 138.174 563.288C128.529 567.591 115.877 569.737 105.408 559.684C95.0541 549.734 98.7895 538.963 104.642 530.994C109.718 524.091 112.036 515.948 111.5 507.769C111.145 502.463 113.453 497.073 118.338 493.227Z" fill="#586958" fill-opacity="0.24"/>
<path d="M139.769 573.461C147.709 567.203 158.944 566.742 164.87 572.431C170.787 578.12 169.158 587.806 161.219 594.065C153.279 600.324 142.044 600.785 136.118 595.095C130.192 589.406 131.83 579.719 139.769 573.461Z" fill="#586958" fill-opacity="0.24"/>
<path d="M88.3051 578.747C96.2411 572.489 107.477 572.027 113.41 577.716C119.333 583.407 117.697 593.092 109.752 599.351C101.816 605.609 90.5794 606.071 84.6564 600.38C78.7334 594.692 80.369 585.006 88.3051 578.747Z" fill="#586958" fill-opacity="0.24"/>
<path d="M93.0358 528.575C100.978 522.317 102.611 512.632 96.6839 506.942C90.7568 501.252 79.5188 501.714 71.5867 507.972C63.6448 514.231 62.0113 523.916 67.9384 529.606C73.8557 535.295 85.0938 534.834 93.0358 528.575Z" fill="#586958" fill-opacity="0.24"/>
<path d="M81.9173 572.617C89.8555 566.358 91.4904 556.673 85.5712 550.983C79.652 545.294 68.4046 545.755 60.4664 552.014C52.5282 558.273 50.8932 567.958 56.8124 573.648C62.7415 579.337 73.9791 578.876 81.9173 572.617Z" fill="#586958" fill-opacity="0.24"/>
<path d="M187.483 646.863C195.829 639.51 209.59 639.642 217.744 647.315C219.425 648.894 220.712 650.678 221.635 652.576C224.009 657.511 227.351 662.053 231.716 665.814L232.894 666.827C237.405 670.699 242.756 673.738 248.627 675.8C251.403 676.776 253.997 678.292 256.179 680.348C263.457 687.206 263.53 697.915 256.343 704.851C251.613 709.42 244.892 711.399 238.436 710.771C229.168 709.865 219.799 711.764 211.745 715.864C202.394 720.623 189.903 723.373 178.808 713.838C167.832 704.407 170.882 693.472 176.214 685.234C180.844 678.097 182.634 669.854 181.575 661.713C180.89 656.433 182.853 650.938 187.483 646.863Z" fill="#586958" fill-opacity="0.24"/>
<path d="M164.476 683.376C172.007 676.744 173.016 666.995 166.747 661.6C160.467 656.205 149.273 657.208 141.742 663.839C134.211 670.471 133.202 680.221 139.472 685.616C145.751 691.011 156.945 690.008 164.476 683.376Z" fill="#586958" fill-opacity="0.24"/>
<path d="M-0.000709434 691.674V613.489C6.62436 611.838 14.0724 613.056 19.6712 617.38C21.5206 618.803 23.0142 620.472 24.1421 622.28C27.0685 626.983 30.9095 631.215 35.6852 634.582L36.9757 635.486C41.9039 638.953 47.5738 641.513 53.6501 643.058C56.5257 643.792 59.2692 645.076 61.6875 646.937C69.7047 653.129 71.0054 663.781 64.6445 671.301C60.4581 676.258 53.9855 678.808 47.4925 678.738C38.1646 678.634 29.0703 681.332 21.5206 686.106C15.5458 689.879 8.01643 692.857 -0.000709434 691.674Z" fill="#586958" fill-opacity="0.24"/>
<path d="M24.8947 695.94C31.6381 688.692 42.6626 686.729 49.5165 691.556C56.3805 696.383 56.481 706.172 49.7376 713.421C43.0043 720.67 31.9797 722.633 25.1258 717.806C18.2619 712.979 18.1614 703.189 24.8947 695.94Z" fill="#586958" fill-opacity="0.24"/>
<path d="M356.918 530.558C367.47 525.816 380.511 529.652 385.528 539.144C386.563 541.098 387.162 543.144 387.351 545.194C387.852 550.528 389.412 555.746 392.237 560.501L392.992 561.782C395.899 566.678 399.907 571.01 404.752 574.554C407.043 576.23 408.964 578.368 410.311 580.913C414.786 589.397 411.05 599.599 401.754 604.256C395.62 607.327 388.525 607.396 382.613 605.058C374.122 601.694 364.547 600.979 355.424 602.703C344.839 604.707 331.979 603.958 324.827 591.903C317.748 579.975 324.531 570.397 332.546 564.004C339.485 558.465 344.124 551.112 346.021 543.086C347.245 537.88 351.071 533.186 356.918 530.558Z" fill="#586958" fill-opacity="0.24"/>
<path d="M353.97 612.891C363.491 608.615 374.489 610.679 378.535 617.499C382.581 624.322 378.147 633.315 368.627 637.595C359.106 641.874 348.116 639.808 344.062 632.985C340.016 626.163 344.45 617.169 353.97 612.891Z" fill="#586958" fill-opacity="0.24"/>
<path d="M302.666 606.513C312.189 602.236 323.188 604.3 327.232 611.121C331.284 617.943 326.846 626.94 317.323 631.215C307.809 635.492 296.802 633.428 292.758 626.607C288.714 619.785 293.152 610.789 302.666 606.513Z" fill="#586958" fill-opacity="0.24"/>
<path d="M322.036 559.076C331.551 554.8 335.991 545.803 331.944 538.982C327.897 532.16 316.903 530.097 307.38 534.373C297.865 538.65 293.425 547.646 297.472 554.468C301.519 561.289 312.513 563.352 322.036 559.076Z" fill="#586958" fill-opacity="0.24"/>
<path d="M298.31 599.16C307.829 594.883 312.26 585.887 308.22 579.065C304.171 572.244 293.172 570.18 283.653 574.456C274.134 578.732 269.694 587.729 273.743 594.55C277.792 601.372 288.791 603.436 298.31 599.16Z" fill="#586958" fill-opacity="0.24"/>
<path d="M891.103 552.243C902.817 550.523 913.892 557.628 915.352 568.002C915.649 570.135 915.506 572.24 914.969 574.244C913.581 579.46 913.239 584.841 914.265 590.119L914.541 591.541C915.592 596.975 917.9 602.164 921.276 606.82C922.879 609.024 923.956 611.57 924.349 614.351C925.646 623.619 918.513 632.345 908.025 634.318C901.111 635.62 894.331 633.807 889.515 630.013C882.607 624.561 873.732 621.344 864.439 620.571C853.655 619.674 841.671 615.555 839.077 602.177C836.504 588.942 846.318 581.615 856.183 577.648C864.73 574.209 871.731 568.433 876.337 561.289C879.329 556.655 884.608 553.198 891.103 552.243Z" fill="#586958" fill-opacity="0.24"/>
<path d="M859.492 629.892C870.053 628.338 879.808 633.217 881.278 640.787C882.749 648.358 875.376 655.75 864.81 657.304C854.244 658.854 844.494 653.975 843.024 646.405C841.553 638.838 848.926 631.442 859.492 629.892Z" fill="#586958" fill-opacity="0.24"/>
<path d="M812.858 610.227C823.422 608.678 833.171 613.556 834.645 621.125C836.115 628.693 828.738 636.091 818.174 637.641C807.611 639.195 797.856 634.316 796.387 626.743C794.918 619.175 802.289 611.781 812.858 610.227Z" fill="#586958" fill-opacity="0.24"/>
<path d="M847.902 570.17C858.463 568.62 865.841 561.224 864.371 553.655C862.902 546.086 853.147 541.207 842.586 542.757C832.02 544.31 824.647 551.706 826.112 559.275C827.581 566.845 837.341 571.723 847.902 570.17Z" fill="#586958" fill-opacity="0.24"/>
<path d="M811.278 602.065C821.841 600.513 829.213 593.12 827.748 585.551C826.278 577.978 816.525 573.102 805.962 574.655C795.394 576.203 788.022 583.6 789.492 591.169C790.957 598.737 800.715 603.618 811.278 602.065Z" fill="#586958" fill-opacity="0.24"/>
<path d="M718.628 433.194C730.34 431.474 741.419 438.578 742.88 448.95C743.178 451.085 743.032 453.193 742.497 455.195C741.115 460.407 740.774 465.794 741.797 471.069L742.071 472.489C743.124 477.923 745.431 483.109 748.809 487.77C750.404 489.974 751.482 492.521 751.871 495.302C753.174 504.566 746.039 513.295 735.557 515.271C728.642 516.569 721.861 514.757 717.046 510.965C710.13 505.509 701.261 502.294 691.972 501.521C681.179 500.625 669.193 496.505 666.6 483.13C664.031 469.894 673.85 462.563 683.711 458.596C692.264 455.158 699.252 449.385 703.86 442.239C706.855 437.605 712.139 434.146 718.628 433.194Z" fill="#586958" fill-opacity="0.24"/>
<path d="M687.025 510.84C697.588 509.285 707.338 514.165 708.81 521.732C710.276 529.305 702.905 536.699 692.343 538.248C681.781 539.802 672.024 534.923 670.558 527.355C669.087 519.783 676.457 512.389 687.025 510.84Z" fill="#586958" fill-opacity="0.24"/>
<path d="M640.385 491.175C650.951 489.619 660.712 494.498 662.177 502.069C663.649 509.641 656.273 517.036 645.706 518.587C635.146 520.138 625.392 515.259 623.92 507.687C622.455 500.121 629.825 492.726 640.385 491.175Z" fill="#586958" fill-opacity="0.24"/>
<path d="M675.437 451.116C686.001 449.567 693.375 442.172 691.903 434.6C690.43 427.032 680.679 422.154 670.115 423.704C659.55 425.259 652.177 432.653 653.649 440.222C655.115 447.793 664.872 452.671 675.437 451.116Z" fill="#586958" fill-opacity="0.24"/>
<path d="M638.811 483.014C649.371 481.464 656.745 474.07 655.277 466.498C653.808 458.928 644.053 454.049 633.486 455.601C622.932 457.153 615.551 464.548 617.02 472.12C618.494 479.686 628.244 484.564 638.811 483.014Z" fill="#586958" fill-opacity="0.24"/>
<path d="M535.426 378.112C546.991 380.465 554.048 390.746 550.787 400.799C550.113 402.869 549.043 404.764 547.657 406.433C544.066 410.773 541.355 415.622 539.955 420.836L539.581 422.238C538.138 427.6 537.954 433.16 539.002 438.595C539.493 441.165 539.361 443.876 538.489 446.571C535.565 455.555 525.107 461.204 514.561 459.495C507.607 458.369 502.161 454.415 499.406 449.296C495.456 441.943 488.699 435.991 480.476 432.151C470.927 427.697 461.7 419.862 465.254 406.656C468.765 393.584 481.077 390.13 491.938 389.79C501.348 389.492 510.362 386.523 517.786 381.483C522.608 378.216 529.013 376.806 535.426 378.112Z" fill="#586958" fill-opacity="0.24"/>
<path d="M471.772 439.08C482.2 441.204 489.032 448.985 487.022 456.46C485.012 463.935 474.924 468.274 464.495 466.151C454.059 464.027 447.235 456.247 449.245 448.771C451.255 441.297 461.335 436.957 471.772 439.08Z" fill="#586958" fill-opacity="0.24"/>
<path d="M437.504 405.252C447.939 407.379 454.765 415.157 452.759 422.633C450.746 430.11 440.662 434.446 430.227 432.324C419.801 430.201 412.974 422.419 414.98 414.943C416.986 407.47 427.077 403.129 437.504 405.252Z" fill="#586958" fill-opacity="0.24"/>
<path d="M487.621 380.107C498.061 382.229 508.145 377.893 510.146 370.416C512.161 362.94 505.33 355.162 494.904 353.035C484.464 350.913 474.387 355.253 472.379 362.725C470.364 370.202 477.195 377.985 487.621 380.107Z" fill="#586958" fill-opacity="0.24"/>
<path d="M439.674 397.199C450.105 399.321 460.195 394.981 462.201 387.508C464.207 380.032 457.38 372.25 446.949 370.127C436.518 368.005 426.435 372.341 424.421 379.818C422.415 387.294 429.243 395.072 439.674 397.199Z" fill="#586958" fill-opacity="0.24"/>
<path d="M618.178 560.01C629.746 562.366 636.799 572.646 633.539 582.706C632.87 584.771 631.799 586.664 630.415 588.332C626.82 592.677 624.112 597.525 622.707 602.736L622.332 604.137C620.893 609.502 620.709 615.064 621.752 620.5C622.25 623.07 622.114 625.776 621.241 628.471C618.314 637.457 607.865 643.107 597.313 641.397C590.356 640.27 584.912 636.317 582.157 631.201C578.208 623.847 571.448 617.895 563.229 614.055C553.68 609.597 544.458 601.769 548.005 588.558C551.517 575.489 563.829 572.034 574.688 571.69C584.101 571.399 593.118 568.426 600.539 563.387C605.355 560.117 611.766 558.71 618.178 560.01Z" fill="#586958" fill-opacity="0.24"/>
<path d="M554.523 620.988C564.956 623.11 571.776 630.89 569.773 638.363C567.762 645.837 557.674 650.177 547.247 648.055C536.813 645.933 529.987 638.153 531.997 630.673C534.008 623.2 544.089 618.859 554.523 620.988Z" fill="#586958" fill-opacity="0.24"/>
<path d="M520.26 587.157C530.69 589.282 537.518 597.063 535.511 604.535C533.496 612.012 523.414 616.349 512.983 614.23C502.553 612.105 495.725 604.324 497.733 596.846C499.74 589.375 509.829 585.032 520.26 587.157Z" fill="#586958" fill-opacity="0.24"/>
<path d="M570.371 562.01C580.807 564.135 590.891 559.795 592.901 552.322C594.911 544.843 588.083 537.064 577.653 534.938C567.224 532.818 557.133 537.158 555.123 544.631C553.113 552.104 559.942 559.89 570.371 562.01Z" fill="#586958" fill-opacity="0.24"/>
<path d="M522.424 579.104C532.854 581.224 542.946 576.886 544.952 569.407C546.957 561.935 540.128 554.156 529.705 552.03C519.267 549.91 509.183 554.248 507.17 561.72C505.164 569.198 511.993 576.978 522.424 579.104Z" fill="#586958" fill-opacity="0.24"/>
</g>
</g>
<defs>
<clipPath id="clip0_11_753">
<rect width="1639" height="691.858" fill="white" transform="translate(0 0.571167)"/>
</clipPath>
<clipPath id="clip1_11_753">
<rect width="1639" height="686.925" fill="white" transform="matrix(-1 0 0 -1 1639 688.729)"/>
</clipPath>
</defs>
</svg>
